<svg xmlns="http://www.w3.org/2000/svg" viewBox="0 0 271.94 42.64"><defs><style>.cls-1{fill:#4f3333;}</style></defs><g id="Layer_2" data-name="Layer 2"><g id="Layer_1-2" data-name="Layer 1"><path class="cls-1" d="M12.55,8.53a8.26,8.26,0,0,1,1.81.1,2.36,2.36,0,0,0,.58.11,2.94,2.94,0,0,1,1.42,1.31,2.55,2.55,0,0,1,.26,1.21,2.87,2.87,0,0,1-.26,1.27c-.18.38-.65,1.21-1.42,2.47l-1.58,2.58c-.67,1-1,1.59-.94,1.84s.52.82,1.47,1.74S16,23.07,17.1,23.94A4.44,4.44,0,0,1,19,26.52a2,2,0,0,1-1.13,2.06,2.69,2.69,0,0,1-2.82.07,23.82,23.82,0,0,1-4.76-4,8.64,8.64,0,0,0-.95-.84c-.14,0-.42.33-.84,1a2.74,2.74,0,0,1-.42.52c-.21.25-.58.72-1.11,1.43-1.33,1.72-2.22,2.62-2.68,2.73-.18.07-.33.14-.47.21s-.76.2-1.42-.05A2.21,2.21,0,0,1,.76,28a3,3,0,0,1,.71-2.41c.28-.39.79-1.1,1.53-2.16.25-.35.4-.53.47-.53a.17.17,0,0,0,0-.15,7.1,7.1,0,0,1,.79-1.16c.56-.7,1-1.32,1.37-1.84a7.1,7.1,0,0,1,.69-.95c.7-1,1-1.49,1-1.52a4.58,4.58,0,0,1,.84-1.16,2.32,2.32,0,0,1,.32-.47,3.65,3.65,0,0,1,.52-.8,1.63,1.63,0,0,0,.26-.47A1.23,1.23,0,0,0,9.47,14a.2.2,0,0,0-.11-.19H5.57c-2,0-3.19-.08-3.6-.13a2.27,2.27,0,0,1-1.23-.66A2.29,2.29,0,0,1,0,11.26,2.37,2.37,0,0,1,.84,9.42a2.27,2.27,0,0,1,1.21-.6c.42-.05,1.63-.08,3.63-.08,2.45,0,3.93-.07,4.42-.11A22.29,22.29,0,0,1,12.55,8.53ZM27.73,6.69c.13.25.21,4.69.21,13.33s-.08,13.31-.21,14a5.35,5.35,0,0,0-.16,1,2.13,2.13,0,0,1-1.16,1.87A2.12,2.12,0,0,1,24.2,37a2.77,2.77,0,0,1-1.53-3.1q.1-.88.16-13.78c0-6.53.07-10.35.11-11.48a6.35,6.35,0,0,1,.26-2.09,2.75,2.75,0,0,1,.69-.85,2.26,2.26,0,0,1,.78-.52A2.5,2.5,0,0,1,27.73,6.69Z"/><path class="cls-1" d="M43.46,4.8a.48.48,0,0,1,.26,0,1.81,1.81,0,0,1,.82.12,2.66,2.66,0,0,1,.81.35c.77.6,1.16,2.39,1.16,5.42q0,.88.21,1a4.36,4.36,0,0,0,1.52.21,5.58,5.58,0,0,1,1.58.29,3.94,3.94,0,0,1,1.06.81,2,2,0,0,1,.39,2,2.44,2.44,0,0,1-1.5,1.68c-.53.25-3,.42-7.37.53s-6.77.05-7.15-.16a2.49,2.49,0,0,1-1.53-2.23,2.28,2.28,0,0,1,1.43-2.24A11.24,11.24,0,0,1,39,12.06h.73a3.13,3.13,0,0,0,1.55-.29c.16-.17.22-.73.19-1.72V9.27c0-1.26-.05-2,0-2.29a1.74,1.74,0,0,1,.24-.76,2.82,2.82,0,0,1,.68-.85,2.29,2.29,0,0,1,.9-.52A.58.58,0,0,0,43.46,4.8Zm15.17,5A2.32,2.32,0,0,1,59.82,11q.52,1.26.53,6.21a27.26,27.26,0,0,0,.21,4.1,45.18,45.18,0,0,1,0,5.21c-.07,2.77-.09,4.49,0,5.15a6.08,6.08,0,0,1-.32,2.5,2.85,2.85,0,0,1-1.37,1.35,2.29,2.29,0,0,1-2.47-.53,2,2,0,0,1-.79-1.08,9.67,9.67,0,0,1-.16-2.18c0-1.19-.07-1.79-.21-1.79H53.19a14.39,14.39,0,0,1-2.26-.13,3.79,3.79,0,0,1-1.32-.55C49.33,29,49.13,29,49,29a1.59,1.59,0,0,0-.5.66,7.33,7.33,0,0,1-1.13,1.47,6.35,6.35,0,0,1-1.29,1.06,8.49,8.49,0,0,1-4.79,1.15,5.77,5.77,0,0,1-3.89-2,5.55,5.55,0,0,1-.69-.89,2.91,2.91,0,0,1-.42-.74c0-.1,0-.15-.08-.15s-.08,0-.08-.11a2.2,2.2,0,0,0-.21-.53,1.24,1.24,0,0,1-.21-.58,1.6,1.6,0,0,0-.21-.57,6.51,6.51,0,0,1-.13-2.45,6.89,6.89,0,0,1,.55-2.55s.18-.39.53-1.06a6.43,6.43,0,0,1,1.73-2.5,8.23,8.23,0,0,1,3.16-1.13,8.11,8.11,0,0,1,3.39.24,5,5,0,0,1,2.66,1.4,1.54,1.54,0,0,0,.45.37c.19.1.32.13.37.1s.1-.25.13-.63a2.17,2.17,0,0,1,1.29-1.71,10.38,10.38,0,0,1,3.71-.71,2.08,2.08,0,0,0,.42-.06c.84,0,1.33-.14,1.47-.31a4.29,4.29,0,0,0,.11-1.95v-.52a16.88,16.88,0,0,1,0-2.77A2.3,2.3,0,0,1,56,10.37,2.49,2.49,0,0,1,57,9.69,2.25,2.25,0,0,1,58.63,9.79ZM42.06,23.47a1.57,1.57,0,0,0-1.07.69,2.91,2.91,0,0,0-.3,2.55A1.65,1.65,0,0,0,42.3,28,2,2,0,0,0,44,27.13a2.84,2.84,0,0,0,.52-2,1.66,1.66,0,0,0-1-1.47A2.14,2.14,0,0,0,42.06,23.47Zm7.1-1.86c-.12.08-.09.36.08.81.07.28.16.74.27,1.37a2.72,2.72,0,0,0,.26.94c.07.08.25.08.53,0a7.35,7.35,0,0,1,1.84-.23c1-.05,1.77-.09,2.37-.09s.72,0,.81-.1a1.87,1.87,0,0,0,.13-.94c0-.6-.09-.93-.26-1a12.12,12.12,0,0,0-2.31-.11,17.45,17.45,0,0,1-2.11-.06,1.66,1.66,0,0,1-.74-.3C49.58,21.61,49.29,21.52,49.16,21.61ZM66.37,6.93a2.15,2.15,0,0,1,1.29.81.74.74,0,0,1,.1.16,4.66,4.66,0,0,1,.55,2.52q.09,2,.09,12.89v3q0,7.24-.11,8.57a3.52,3.52,0,0,1-.74,2h0c-.21.24-.35.37-.42.37a.29.29,0,0,0-.21.1,1.52,1.52,0,0,1-1.5.24,2.82,2.82,0,0,1-1.61-1,3.12,3.12,0,0,1-.37-1.58c0-.77,0-3,0-6.52q.06-6.27,0-12.79a67.36,67.36,0,0,1,0-7,2.68,2.68,0,0,1,1.48-1.69A2,2,0,0,1,66.37,6.93Z"/><path class="cls-1" d="M86.6,7.64a2.55,2.55,0,0,0,.68.15,2.84,2.84,0,0,1,.58.22c.21.1.39.19.55.25l.45.22a7.37,7.37,0,0,1,2.34,2A4.28,4.28,0,0,1,92.38,13a5.68,5.68,0,0,0,.16.79,6,6,0,0,1,0,2.63c-.07.28-.14.59-.21.95a6.12,6.12,0,0,1-1,2.15,7.59,7.59,0,0,1-1.79,1.9c-.42.35-.7.58-.84.68a.64.64,0,0,1-.34.15c-.09,0-.2.08-.34.22a14.51,14.51,0,0,0-.27,3.13,11.79,11.79,0,0,0,.06,3.08,12.73,12.73,0,0,0,3,.15,15.44,15.44,0,0,1,3.31.22,2.17,2.17,0,0,1,1.26,1.2,2.55,2.55,0,0,1-.1,2c-.32.84-.7,1.26-1.16,1.26-.1,0-.16,0-.16.1,0,.35-1.36.46-4.1.31A63,63,0,0,0,82.6,34c-1,.06-2.33.09-3.92.07A10.22,10.22,0,0,1,76,33.88,3,3,0,0,1,74.23,32a2.5,2.5,0,0,1,.63-2.31A2,2,0,0,1,76,28.92a22,22,0,0,1,3.29-.14c1.62,0,2.55,0,2.82-.05s.41-.12.45-.26a20.5,20.5,0,0,0,0-2.95,19,19,0,0,0-.16-2.63c-.08-.24-.32-.39-.74-.42a1.77,1.77,0,0,1-.63-.15,1.45,1.45,0,0,0-.47-.22,1.67,1.67,0,0,1-.58-.31,2.23,2.23,0,0,0-.48-.32c-.21,0-.59-.3-1.15-.92A11.59,11.59,0,0,1,77,18.79a6.68,6.68,0,0,1-.74-2.92A6.18,6.18,0,0,1,76.6,13a2.59,2.59,0,0,0,.32-.63,9.38,9.38,0,0,1,1.81-2.56A7.79,7.79,0,0,1,81,8.06a5.3,5.3,0,0,1,1.53-.58,1.5,1.5,0,0,0,.57-.16A5.28,5.28,0,0,1,86.6,7.64Zm-1.29,5.13a3.89,3.89,0,0,0-1.5.08,2.92,2.92,0,0,0-2.13,1.86,2,2,0,0,0,.44,2.39,3.21,3.21,0,0,0,2.42.74A2.93,2.93,0,0,0,86.81,17a3,3,0,0,0,.68-2.11,2,2,0,0,0-.89-1.74A2.82,2.82,0,0,0,85.31,12.77ZM101,5.56a2.17,2.17,0,0,1,1.42.76,2.65,2.65,0,0,1,.55,1.18c0,.37.1,1.58.13,3.61q.1,7.05.53,7.41a5.49,5.49,0,0,0,2,.11,13.43,13.43,0,0,1,3.89.24,2.62,2.62,0,0,1,1.68,1.44,2.36,2.36,0,0,1,.08,1.77,2.12,2.12,0,0,1-1,1.39,3.34,3.34,0,0,1-1.16.47c-.28,0-1.15.07-2.63.11-1.86,0-2.82.07-2.89.11s0,1.68,0,4.84q0,3.73,0,4.65a3.44,3.44,0,0,1-.43,1.55,2.41,2.41,0,0,1-1.5,1.29,2,2,0,0,1-1.81-.18l-.16-.05a2.15,2.15,0,0,1-1.1-1.3,30.77,30.77,0,0,1-.21-4.23V30.2q-.17-12.67-.42-18A18.35,18.35,0,0,1,98,7.74a3,3,0,0,1,1.34-1.95A2.05,2.05,0,0,1,101,5.56Z"/><path class="cls-1" d="M136.15,2.84a9.1,9.1,0,0,1,2.58.22,4.77,4.77,0,0,0,1.05.32A6.31,6.31,0,0,1,143,5.14a12.77,12.77,0,0,1,2.74,3.66,8.36,8.36,0,0,1,.34,3,13.41,13.41,0,0,1-.24,3.34,9.67,9.67,0,0,0-.31,1.94,8.77,8.77,0,0,1-.26,1.69,2.17,2.17,0,0,0-.17.89,7.66,7.66,0,0,1-.15,1.34,7.9,7.9,0,0,0-.16,1.18,3.49,3.49,0,0,1-.16,1,4.13,4.13,0,0,0-.26,1.26c-.07.5-.16,1-.26,1.42a12.48,12.48,0,0,0-.37,1.74,24.54,24.54,0,0,1-.53,2.58c-.07.35-.17.87-.32,1.58a8.47,8.47,0,0,1-.3,1.31,3.66,3.66,0,0,0-.22.74,14.19,14.19,0,0,1-.79,2.63,2.07,2.07,0,0,1-.95,1.08,3,3,0,0,1-1.62.44,2.54,2.54,0,0,1-2.38-1.62,3.32,3.32,0,0,1-.36-1.13,7.59,7.59,0,0,1,.36-1.56,11.33,11.33,0,0,0,.27-1.26,3.73,3.73,0,0,1,.32-1.21,10,10,0,0,0,.26-1.1c.07-.42.19-1,.37-1.74a9.42,9.42,0,0,0,.31-1.74,8.93,8.93,0,0,1,.31-1.26,6.06,6.06,0,0,0,.37-1.92c.07-.9.17-1.64.27-2.24a2.33,2.33,0,0,0,.08-.94c-.06-.11-.28-.09-.66.05a7.83,7.83,0,0,1-2.47.24,8.15,8.15,0,0,1-2.42-.29q-3.69-1.43-4.84-4.05a8.26,8.26,0,0,1-.58-3.56,9.72,9.72,0,0,1,.58-3.75c.1-.25.2-.55.32-.9a2.44,2.44,0,0,1,.25-.74,1.63,1.63,0,0,0,.32-.63,6.69,6.69,0,0,1,1.61-2.13,3.27,3.27,0,0,1,1.87-1.13,3,3,0,0,0,.52-.21A7.82,7.82,0,0,1,136.15,2.84Zm-.39,5.9a1.12,1.12,0,0,0-1,.74,3.81,3.81,0,0,1-.42.84,4.68,4.68,0,0,0-.31,1.84,3.47,3.47,0,0,0,.34,2,2.7,2.7,0,0,0,1.76.36,3,3,0,0,0,1.5-.23,7.55,7.55,0,0,0,1.23-1.5,2.88,2.88,0,0,0,.43-.68,3.46,3.46,0,0,1,.37-.74,1.25,1.25,0,0,0-.14-1.47,3.66,3.66,0,0,0-1.91-1.05A4.21,4.21,0,0,0,135.76,8.74Z"/><path class="cls-1" d="M155,2.84a9.1,9.1,0,0,1,2.58.22,4.77,4.77,0,0,0,1,.32,6.31,6.31,0,0,1,3.21,1.76,12.77,12.77,0,0,1,2.74,3.66,8.36,8.36,0,0,1,.34,3,13.41,13.41,0,0,1-.24,3.34,9.67,9.67,0,0,0-.31,1.94,7.82,7.82,0,0,1-.27,1.69,2.36,2.36,0,0,0-.16.89,7.66,7.66,0,0,1-.15,1.34,7.9,7.9,0,0,0-.16,1.18,3.49,3.49,0,0,1-.16,1,4.13,4.13,0,0,0-.26,1.26c-.07.5-.16,1-.26,1.42a12.48,12.48,0,0,0-.37,1.74,24.54,24.54,0,0,1-.53,2.58c-.07.35-.17.87-.32,1.58a7.26,7.26,0,0,1-.31,1.31,3.56,3.56,0,0,0-.21.74,14.19,14.19,0,0,1-.79,2.63,2.07,2.07,0,0,1-1,1.08,3,3,0,0,1-1.62.44,2.54,2.54,0,0,1-2.38-1.62,3.32,3.32,0,0,1-.36-1.13,7.59,7.59,0,0,1,.36-1.56q.17-.63.27-1.26a3.73,3.73,0,0,1,.32-1.21,10,10,0,0,0,.26-1.1c.07-.42.19-1,.37-1.74a9.42,9.42,0,0,0,.31-1.74,7.74,7.74,0,0,1,.31-1.26,6.06,6.06,0,0,0,.37-1.92c.07-.9.17-1.64.27-2.24a2.33,2.33,0,0,0,.08-.94c-.06-.11-.28-.09-.66.05a7.83,7.83,0,0,1-2.47.24,8.15,8.15,0,0,1-2.42-.29q-3.69-1.43-4.84-4.05a8.26,8.26,0,0,1-.58-3.56,9.72,9.72,0,0,1,.58-3.75c.1-.25.2-.55.32-.9a2.44,2.44,0,0,1,.25-.74,1.63,1.63,0,0,0,.32-.63,6.69,6.69,0,0,1,1.61-2.13,3.27,3.27,0,0,1,1.87-1.13,3,3,0,0,0,.52-.21A7.82,7.82,0,0,1,155,2.84Zm-.39,5.9a1.12,1.12,0,0,0-1,.74,3.81,3.81,0,0,1-.42.84,4.68,4.68,0,0,0-.31,1.84,3.47,3.47,0,0,0,.34,2,2.7,2.7,0,0,0,1.76.36,3,3,0,0,0,1.5-.23,7.55,7.55,0,0,0,1.23-1.5,2.88,2.88,0,0,0,.43-.68,3.46,3.46,0,0,1,.37-.74,1.25,1.25,0,0,0-.14-1.47,3.66,3.66,0,0,0-1.91-1.05A4.21,4.21,0,0,0,154.65,8.74Z"/><path class="cls-1" d="M173.92,2.84a9.1,9.1,0,0,1,2.58.22,4.77,4.77,0,0,0,1.05.32,6.38,6.38,0,0,1,3.22,1.76,13,13,0,0,1,2.74,3.66,8.88,8.88,0,0,1,.34,3,14.48,14.48,0,0,1-.24,3.34,9.55,9.55,0,0,0-.32,1.94,7.39,7.39,0,0,1-.26,1.69,2.18,2.18,0,0,0-.16.89,6.93,6.93,0,0,1-.16,1.34,7.9,7.9,0,0,0-.16,1.18,3.45,3.45,0,0,1-.15,1,4.13,4.13,0,0,0-.26,1.26c-.07.5-.17,1-.27,1.42a14.11,14.11,0,0,0-.37,1.74A25.27,25.27,0,0,1,181,30.1c-.08.35-.18.87-.32,1.58a8.24,8.24,0,0,1-.31,1.31,4.45,4.45,0,0,0-.22.74,14.19,14.19,0,0,1-.79,2.63,2,2,0,0,1-.94,1.08,3,3,0,0,1-1.63.44,2.53,2.53,0,0,1-2.37-1.62,3.18,3.18,0,0,1-.37-1.13,7.19,7.19,0,0,1,.37-1.56c.11-.42.19-.84.26-1.26A4.32,4.32,0,0,1,175,31.1a6.86,6.86,0,0,0,.26-1.1c.07-.42.19-1,.37-1.74a9.5,9.5,0,0,0,.32-1.74,6.83,6.83,0,0,1,.31-1.26,6.06,6.06,0,0,0,.37-1.92c.07-.9.16-1.64.26-2.24a2,2,0,0,0,.08-.94c0-.11-.27-.09-.65.05a7.9,7.9,0,0,1-2.48.24,8.07,8.07,0,0,1-2.41-.29q-3.69-1.43-4.85-4.05a8.28,8.28,0,0,1-.57-3.56,9.75,9.75,0,0,1,.57-3.75,9,9,0,0,0,.32-.9,2.42,2.42,0,0,1,.26-.74,2,2,0,0,0,.32-.63,6.64,6.64,0,0,1,1.6-2.13,3.3,3.3,0,0,1,1.87-1.13,3,3,0,0,0,.53-.21A7.74,7.74,0,0,1,173.92,2.84Zm-.39,5.9a1.11,1.11,0,0,0-1,.74,4.35,4.35,0,0,1-.42.84,4.68,4.68,0,0,0-.31,1.84,3.47,3.47,0,0,0,.34,2c.22.24.81.36,1.75.36a3.09,3.09,0,0,0,1.51-.23,8.36,8.36,0,0,0,1.23-1.5,2.84,2.84,0,0,0,.42-.68,4,4,0,0,1,.37-.74,1.23,1.23,0,0,0-.13-1.47,3.7,3.7,0,0,0-1.92-1.05A4.21,4.21,0,0,0,173.53,8.74Z"/><path class="cls-1" d="M192.81,2.84a9.1,9.1,0,0,1,2.58.22,4.77,4.77,0,0,0,1.05.32,6.31,6.31,0,0,1,3.21,1.76,12.77,12.77,0,0,1,2.74,3.66,8.36,8.36,0,0,1,.34,3,13.41,13.41,0,0,1-.24,3.34,9.67,9.67,0,0,0-.31,1.94,8.77,8.77,0,0,1-.26,1.69,2.17,2.17,0,0,0-.17.89A7.66,7.66,0,0,1,201.6,21a7.9,7.9,0,0,0-.16,1.18,3.49,3.49,0,0,1-.16,1,4.13,4.13,0,0,0-.26,1.26c-.07.5-.16,1-.26,1.42a12.48,12.48,0,0,0-.37,1.74,24.54,24.54,0,0,1-.53,2.58c-.07.35-.17.87-.32,1.58a8.47,8.47,0,0,1-.3,1.31,3.66,3.66,0,0,0-.22.74,14.19,14.19,0,0,1-.79,2.63,2.07,2.07,0,0,1-.95,1.08,3,3,0,0,1-1.62.44,2.54,2.54,0,0,1-2.38-1.62,3.32,3.32,0,0,1-.36-1.13,7.59,7.59,0,0,1,.36-1.56,11.33,11.33,0,0,0,.27-1.26,3.73,3.73,0,0,1,.32-1.21,10,10,0,0,0,.26-1.1c.07-.42.19-1,.37-1.74a9.42,9.42,0,0,0,.31-1.74,8.93,8.93,0,0,1,.31-1.26,6.06,6.06,0,0,0,.37-1.92c.07-.9.17-1.64.27-2.24a2.33,2.33,0,0,0,.08-.94c-.06-.11-.28-.09-.66.05a7.83,7.83,0,0,1-2.47.24,8.15,8.15,0,0,1-2.42-.29q-3.69-1.43-4.84-4.05a8.26,8.26,0,0,1-.58-3.56,9.72,9.72,0,0,1,.58-3.75c.1-.25.2-.55.32-.9a2.44,2.44,0,0,1,.25-.74,1.63,1.63,0,0,0,.32-.63A6.69,6.69,0,0,1,188,4.4a3.27,3.27,0,0,1,1.87-1.13,3,3,0,0,0,.52-.21A7.82,7.82,0,0,1,192.81,2.84Zm-.39,5.9a1.12,1.12,0,0,0-1,.74,3.81,3.81,0,0,1-.42.84,4.68,4.68,0,0,0-.31,1.84,3.47,3.47,0,0,0,.34,2,2.7,2.7,0,0,0,1.76.36,3,3,0,0,0,1.5-.23,7.55,7.55,0,0,0,1.23-1.5,2.88,2.88,0,0,0,.43-.68,3.46,3.46,0,0,1,.37-.74,1.25,1.25,0,0,0-.14-1.47,3.66,3.66,0,0,0-1.91-1.05A4.21,4.21,0,0,0,192.42,8.74Z"/><path class="cls-1" d="M214.52,3.16a8.61,8.61,0,0,1,3.55,2.32,7.13,7.13,0,0,1,.65,1.08,2.44,2.44,0,0,1,.35.87,1.47,1.47,0,0,0,.16.52,8.34,8.34,0,0,1,.15,2.13,9,9,0,0,1-.15,2.18,1.92,1.92,0,0,0-.16.59,4.31,4.31,0,0,1-.69,1.67,8.22,8.22,0,0,1-1.31,1.85,6.71,6.71,0,0,1-2.28,1.47,6.92,6.92,0,0,1-2.67.63,14.73,14.73,0,0,1-1.62-.15c-.78-.11-1.24-.18-1.37-.22a1.3,1.3,0,0,0-.54-.15,5.57,5.57,0,0,1-2.36-1.27,6.4,6.4,0,0,1-1.79-2.21,7.34,7.34,0,0,1-.63-2.52,6.18,6.18,0,0,1,.11-2.42,2.62,2.62,0,0,0,.15-.66.85.85,0,0,1,.16-.44c.07-.15.18-.37.31-.69a9.32,9.32,0,0,1,2.51-3.23,9.09,9.09,0,0,1,3.5-1.87A7,7,0,0,1,214.52,3.16ZM212.12,8a4.68,4.68,0,0,0-1.42.15,3.21,3.21,0,0,0-1.52,1.58,2.7,2.7,0,0,0-.31,2,1.88,1.88,0,0,0,.86,1.18,4.73,4.73,0,0,0,1.87.37,3.54,3.54,0,0,0,1.55-.24,2.08,2.08,0,0,0,.81-1,5.12,5.12,0,0,1,.32-.69,2.34,2.34,0,0,0,.16-1.79,2,2,0,0,0-.9-1.42A3.64,3.64,0,0,0,212.12,8ZM220,22a72.78,72.78,0,0,1,8.34.23,3.07,3.07,0,0,1,1.36,1.27,8.32,8.32,0,0,1,.43,2.63,29.12,29.12,0,0,1,0,5.74,4,4,0,0,1-.82,1.36c-.44.53-.78.8-1,.8a1.34,1.34,0,0,0-.43.15c-.45.28-2.26.47-5.41.58a17.35,17.35,0,0,0-2.84.16,15.9,15.9,0,0,1-1.95.1,9.32,9.32,0,0,0-1.87.16q-.24.1-.18.84c0,.63.08,1,.23,1.08a6.19,6.19,0,0,0,1.71.19c1.19,0,2.23.08,3.11.15s2.42.07,4.52.11a25.12,25.12,0,0,1,3.21.11,2.23,2.23,0,0,1,1.16.57,2.13,2.13,0,0,1,.61,2.55,3.13,3.13,0,0,1-2.45,1.77,54.12,54.12,0,0,1-7.81,0q-6.34-.27-7.19-.64a4.71,4.71,0,0,1-1-.62c-.35-.29-.52-.48-.52-.59a.45.45,0,0,0-.15-.31c-.36-.42-.59-1.81-.69-4.15s0-3.82.31-4.37a1.25,1.25,0,0,0,.21-.34,2,2,0,0,1,.56-.64,2.23,2.23,0,0,1,.75-.49c.43-.22,2.38-.41,5.84-.59,1.44-.07,2.29-.12,2.53-.15s1.14-.09,2.47-.16a10,10,0,0,0,2.11-.18c.17-.09.27-.41.27-1V28c0-.52-.19-.82-.56-.89a36.38,36.38,0,0,0-3.76,0,6.08,6.08,0,0,0-.84,0c-3.48.07-5.78.05-6.92-.07a3.93,3.93,0,0,1-2.4-.88,2.32,2.32,0,0,1-.68-2.15,2.57,2.57,0,0,1,1.42-1.9A73,73,0,0,1,220,22ZM228.73.16a2.15,2.15,0,0,1,1.13.74,4.55,4.55,0,0,1,.52,2c.07,1,.13,1.51.16,1.68.14.92.23,3.23.29,7a51.87,51.87,0,0,1-.08,6.15,2.74,2.74,0,0,1-1.26,1.77,2.39,2.39,0,0,1-2,.23A2.53,2.53,0,0,1,226,18.32a6.07,6.07,0,0,1-.21-1.35c0-.58-.07-2.48-.11-5.71q0-6.63-.15-7.68c-.1-2,.47-3.17,1.74-3.52A2.8,2.8,0,0,1,228.73.16Z"/><path class="cls-1" d="M268.71,9.11a2.74,2.74,0,0,1,1.55.42c.66.42,1,.74,1,.94a.31.31,0,0,0,.15.27c.11,0,.16.12.16.26a.66.66,0,0,0,.21.48,5.52,5.52,0,0,1,.16,1.86,7.42,7.42,0,0,1-.16,2,2.06,2.06,0,0,0-.21.94,1.13,1.13,0,0,1-.16.69,1.08,1.08,0,0,0-.15.63c0,.29-.05.46-.16.52a2.23,2.23,0,0,0-.19.66c-.05.34-.12.54-.24.61a.47.47,0,0,0-.1.32,1.64,1.64,0,0,1-.26.62,2.12,2.12,0,0,0-.31.8c-.08.21-.13.31-.16.31s-.12.09-.16.26a4.85,4.85,0,0,1-.48,1.16.5.5,0,0,1-.08.21,3.49,3.49,0,0,1-.2.37,4.49,4.49,0,0,0-.24.42L268,25.26a2.58,2.58,0,0,0-.31.69c0,.07-.05.14-.16.23a.38.38,0,0,0-.16.29A1,1,0,0,1,267,27a2.38,2.38,0,0,0-.3.48,2.1,2.1,0,0,1-.24.39c-.16.24-.26.35-.3.35a.55.55,0,0,0-.05.31c0,.18,0,.29-.15.32a.5.5,0,0,0-.27.31,5.59,5.59,0,0,1-.63,1.05c-.21.22-.32.35-.32.42a1.23,1.23,0,0,1-.25.48,2.5,2.5,0,0,0-.48.79,2.73,2.73,0,0,1-1.84,1.28,2.62,2.62,0,0,1-2.21-.23,5.63,5.63,0,0,1-.95-.95c-.35-.42-.53-.7-.53-.84a.45.45,0,0,0-.15-.34.41.41,0,0,1-.16-.34.49.49,0,0,0-.16-.37.44.44,0,0,1-.16-.27,2.26,2.26,0,0,0-.31-.73,2.68,2.68,0,0,1-.26-.69.35.35,0,0,0-.17-.28.45.45,0,0,1-.15-.34.8.8,0,0,0-.21-.48.77.77,0,0,1-.21-.42,1.11,1.11,0,0,0-.16-.47,1.25,1.25,0,0,0-.11-.29c-.06-.16-.12-.28-.15-.35a8.9,8.9,0,0,1-.48-1,2.55,2.55,0,0,1-.37-.79.42.42,0,0,0-.13-.29.45.45,0,0,1-.12-.33.4.4,0,0,0-.17-.37.7.7,0,0,1-.2-.48,2.31,2.31,0,0,0-.22-.57.74.74,0,0,1-.15-.42.51.51,0,0,0-.16-.37,3.85,3.85,0,0,1-.29-.66,2.72,2.72,0,0,0-.35-.71c-.1-.07-.15-.25-.15-.53a.62.62,0,0,0-.13-.45.67.67,0,0,1-.14-.49,1.64,1.64,0,0,0-.18-.66,1.63,1.63,0,0,1-.13-.71,2.83,2.83,0,0,0-.16-.95,3.75,3.75,0,0,1-.21-1.39,4.23,4.23,0,0,1,.16-1.34,1.71,1.71,0,0,0,.21-.72.52.52,0,0,1,.16-.41.42.42,0,0,0,.15-.32.45.45,0,0,1,.14-.32.37.37,0,0,0,.13-.29c0-.27.45-.68,1.37-1.21a4,4,0,0,1,2-.47,4.89,4.89,0,0,1,1.11.08c.18.05.74.31,1.69.76.13.1.56.51,1.28,1.21a7.6,7.6,0,0,1,1.08,1.15,1.72,1.72,0,0,0,.34.56,4.21,4.21,0,0,0,.42.5q.09,0,.24-.21A23.05,23.05,0,0,1,265,11.11a10.24,10.24,0,0,1,2.15-1.58A3,3,0,0,1,268.71,9.11Z"/></g></g></svg>