<svg xmlns="http://www.w3.org/2000/svg" viewBox="0 0 109 81.37"><defs><style>.cls-1{fill:#f2ecce;}.cls-2{fill:#fbf7e4;}.cls-3,.cls-4{fill:#f4cece;}.cls-3,.cls-5{fill-rule:evenodd;}.cls-5{fill:#ffd9d9;}.cls-6{fill:#4f3333;}</style></defs><g id="Layer_2" data-name="Layer 2"><g id="Layer_1-2" data-name="Layer 1"><rect class="cls-1" y="78.37" width="109" height="3"/><path class="cls-2" d="M9.66,4.37H99.34l9.61,74H.05Z"/><path class="cls-3" d="M54.5,18C76.69.58,132.17,31.1,54.5,70.34-23.17,31.1,32.31.58,54.5,18Z"/><rect class="cls-4" x="14.5" y="17.67" width="80" height="13" rx="1"/><path class="cls-5" d="M54.5,5c22.19-17.44,77.67,13.08,0,52.32C-23.17,18.1,32.31-12.42,54.5,5Z"/><path class="cls-6" d="M22.05,17.07l3.65,4,1.21-1.57-1.48-.86a3.29,3.29,0,0,0-1.67-.69,1.8,1.8,0,0,0-1.32.94,14.06,14.06,0,0,0-.86,1.31c-.25.42-.45.85-.67,1.28-.07.12-.14.26-.21.37s-.16.06-.06,0-.17,0-.06,0c-.66-.15-.79-1.1-.9-1.75l-1.83.77q1.29,2.43,2.81,4.71A1,1,0,0,0,22,26a1,1,0,0,0,.36-1.37,50.88,50.88,0,0,1-2.81-4.71,1,1,0,0,0-1.25-.4,1,1,0,0,0-.58,1.17,4,4,0,0,0,1.41,2.74,2.26,2.26,0,0,0,3-.2A6.33,6.33,0,0,0,23,21.82a15.67,15.67,0,0,1,.85-1.42s.42-.57.41-.58l-.54.11.15.08a3.3,3.3,0,0,0,.45.26l1.62.94a1,1,0,0,0,1.21-1.57l-3.64-4c-.87-1-2.28.46-1.42,1.41Z"/><path class="cls-6" d="M30.81,25.13l-3.5,1.47-1.69.7a3.72,3.72,0,0,0-1.6.95c-.93,1.21.35,2.47,1.19,3.28a13,13,0,0,0,2.73,2,1,1,0,0,0,1.37-.36A1,1,0,0,0,29,31.84a10.58,10.58,0,0,1-2.08-1.49,10.76,10.76,0,0,1-.94-1,1.71,1.71,0,0,1-.22-.25q.08.09,0-.06v.05s-.09.3-.12.38-.09.06,0,0l.12-.07c.13-.07.29-.13.51-.22l.73-.31,1.45-.6,2.95-1.24a1,1,0,0,0,.7-1.23,1,1,0,0,0-1.23-.7Z"/><path class="cls-6" d="M32.13,32.27a4,4,0,0,0-1.66,2.14,2.63,2.63,0,0,0-.1,1.52,1.69,1.69,0,0,0,1.31,1.15,3.65,3.65,0,0,0,2.56-.53,2.46,2.46,0,0,0,.61-3.74,2,2,0,0,0-1.41-.69,1,1,0,0,0-.7.3,1,1,0,0,0-.3.7,1,1,0,0,0,.3.71,1.08,1.08,0,0,0,.7.29h0l-.27,0a1.07,1.07,0,0,1,.27.07l-.24-.1.21.13L33.24,34a.92.92,0,0,1,.22.22l-.15-.2a1.46,1.46,0,0,1,.17.3l-.1-.24a1.86,1.86,0,0,1,.1.39l0-.27a2.67,2.67,0,0,1,0,.4l0-.26a1.18,1.18,0,0,1-.08.31l.1-.24a2,2,0,0,1-.21.35l.16-.2a2,2,0,0,1-.33.32l.2-.15a2.65,2.65,0,0,1-.52.29L33,35a2.94,2.94,0,0,1-.72.19l.27,0a2.41,2.41,0,0,1-.6,0l.27,0a.89.89,0,0,1-.28-.07l.23.11-.17-.1.2.16-.11-.11.16.2-.07-.11.1.24a1.05,1.05,0,0,1,0-.19l0,.27a2.54,2.54,0,0,1,0-.39l0,.27a2.42,2.42,0,0,1,.19-.7l-.11.24a3.1,3.1,0,0,1,.39-.66l-.15.2a3.08,3.08,0,0,1,.51-.51l-.2.15.22-.15a1,1,0,0,0,.36-1.37,1,1,0,0,0-1.37-.36Z"/><path class="cls-6" d="M36.43,35.21a14.21,14.21,0,0,0-1.27,2c-.22.42-.41.85-.59,1.29a3.25,3.25,0,0,0-.35,1.25,1.33,1.33,0,0,0,1.41,1.28,11.74,11.74,0,0,0,1.43-.21c.87-.15,1.74-.34,2.6-.56a1,1,0,0,0,.7-1.23,1,1,0,0,0-1.23-.7c-.74.19-1.48.36-2.23.5l-1.08.18-.17,0c-.1,0-.11,0,0,0h0c-.12,0-.09,0,.08,0a.6.6,0,0,1,.46.5.37.37,0,0,1,0,.31s.06-.18.07-.21l.18-.47c0-.1.08-.21,0,0,0-.1.08-.19.12-.29q.21-.45.45-.9a14.21,14.21,0,0,1,1.13-1.76,1,1,0,0,0-.36-1.37,1,1,0,0,0-1.37.36Z"/><path class="cls-6" d="M41,43c.76,1.4,2.3,2.59,4,2.2s2.77-2.4,1.69-3.86a3.62,3.62,0,0,0-4.24-.91,4.1,4.1,0,0,0-2.65,3.49,4,4,0,0,0,2.5,3.89,1,1,0,0,0,1.23-.7,1,1,0,0,0-.7-1.23c.24.1-.11-.06-.16-.09s-.26-.21-.1-.06l-.24-.23-.12-.14c.11.12,0,.06,0,0L42,45.05s-.05-.12-.08-.17.07.23,0,0l-.09-.28a1.29,1.29,0,0,1,0-.19.36.36,0,0,1,0-.11c0,.13,0,.16,0,.08a2.66,2.66,0,0,1,0-.63l0-.17a.78.78,0,0,1,0-.14c.07-.24-.1.17,0,0a3.07,3.07,0,0,1,.17-.31s.14-.19,0,0l.1-.12.21-.22.15-.13,0,0,.1-.07.3-.19a.61.61,0,0,0,.14-.07c.22-.12-.13,0,0,0a4.49,4.49,0,0,1,.72-.19c-.27,0,.11,0,.17,0h.32l.2,0a1.52,1.52,0,0,1,.2.06c.19.05-.12-.09.06,0s.3.19.14.06l.14.14c.11.07-.09-.19,0,0l.08.14s-.06-.19,0,0,0,0,0,0a.54.54,0,0,1,0,.22c.13-.24-.07-.08,0,0s-.14.24,0,0c-.05.08-.19.28-.05.12a2.37,2.37,0,0,1-.28.27s.17-.1,0,0l-.21.12s.2-.06,0,0l-.22,0c.19,0,.1,0,0,0h-.24c.22,0,0,0,0,0s-.15,0-.23-.06.19.11,0,0L43.68,43,43.54,43c-.22-.15.13.13-.06-.05s-.21-.19-.31-.3l-.11-.13c-.15-.16.06.11-.05-.06s-.18-.29-.26-.44a1,1,0,0,0-1.37-.35A1,1,0,0,0,41,43Z"/><path class="cls-6" d="M58.7,43.1a5.89,5.89,0,0,0,2,1.78,3,3,0,0,0,2.68,0,3.33,3.33,0,0,0,1.43-2.29l.89-3.17-2-.27a27.9,27.9,0,0,1-1.84,9.51,1,1,0,0,0,.7,1.23,1,1,0,0,0,1.23-.7,29.42,29.42,0,0,0,1.91-10,1,1,0,0,0-2-.26l-.68,2.42c-.11.38-.21.75-.32,1.12a1.66,1.66,0,0,1-.23.62c-.25.25-.74.15-1,0a4.81,4.81,0,0,1-1.39-1.38,1,1,0,0,0-1.42,0,1,1,0,0,0,0,1.42Z"/><path class="cls-6" d="M67.26,38.54c0,.12,0,.24,0,.36V39c0,.11,0,.08,0-.08,0,0,0,.09,0,.12,0,.25-.11.49-.17.73a3.51,3.51,0,0,0-.1,1.76,2.33,2.33,0,0,0,2.41,1.68,2.93,2.93,0,0,0,2.53-1.64,5.14,5.14,0,0,0,.48-1.71,3.22,3.22,0,0,0-.11-1.66,2.66,2.66,0,0,0-1.87-1.24,5.09,5.09,0,0,0-2-.14,1.1,1.1,0,0,0-.71.29,1,1,0,0,0-.29.71,1,1,0,0,0,.29.7,1,1,0,0,0,.71.3,3.66,3.66,0,0,1,.66,0h.38l.11,0a4.5,4.5,0,0,1,.63.17l.13,0c.22.08-.15-.07,0,0a1.24,1.24,0,0,0,.3.16s-.18-.17-.07,0L70.48,39c0-.13-.06-.17,0-.09s0,0,0-.06a.56.56,0,0,0,0,.13c0,.2,0,.41,0,.61a.49.49,0,0,0,0,.12c0,.22,0-.24,0,0s0,.16,0,.24a3.86,3.86,0,0,1-.17.58c-.07.2.11-.21,0,0l-.06.1a1.71,1.71,0,0,1-.13.23c0,.07-.14.14,0,0l-.07.09c-.07.08-.15.14-.22.22s.22-.15.07-.06l-.08.05-.1,0c-.08,0-.17,0,.08,0l-.2.07-.11,0c-.1,0-.22,0,.08,0a1.48,1.48,0,0,0-.21,0c-.12,0-.31-.06,0,0a.79.79,0,0,1-.22,0l-.09,0c-.16,0,.22.11.08,0s-.19-.09-.19-.12.2.19.1.07L68.93,41c-.13-.12.13.22,0,.07l0-.08,0-.08c.13.19,0,.11,0,0v-.05c0-.11,0-.08,0,.09a1,1,0,0,0,0-.17.49.49,0,0,1,0-.12v-.09c0-.08,0,0,0,.12,0-.09,0-.24.07-.33s0-.22.08-.33a4.51,4.51,0,0,0,.21-1.54,1.08,1.08,0,0,0-.29-.71,1.05,1.05,0,0,0-.71-.29,1,1,0,0,0-1,1Z"/><path class="cls-6" d="M72.23,34.67a3.84,3.84,0,0,0,1.66,3.47,3.17,3.17,0,0,0,3.82-.26,4.7,4.7,0,0,0,1.23-3.31,8.49,8.49,0,0,0-.51-4.09,1,1,0,0,0-1.73,0,2.33,2.33,0,0,0,.88,3,3.59,3.59,0,0,0,3.33.08,1,1,0,0,0,.7-1.23,1,1,0,0,0-1.23-.69,2.35,2.35,0,0,1-1.68.21c.08,0,0,0-.07-.06l-.14-.15c.06.07.06.05,0,0s-.06-.12,0,0c0-.12,0-.13,0,0,0-.12,0-.12,0,0q0-.16,0,0H76.7A6.19,6.19,0,0,1,77,34.21c0,.21,0,.42,0,.63,0,0,0,.32,0,.15,0,.1,0,.2,0,.31s-.1.39-.16.59,0,0-.06.12l-.13.23c0-.06-.11.13-.14.16l-.11.1c.06,0,.06,0,0,0a.8.8,0,0,1-.45.17c-.07,0-.07,0,0,0H75.5a1.58,1.58,0,0,1-.31-.09c-.07,0-.07,0,0,0L75,36.5a1.84,1.84,0,0,1-.8-1.83,1,1,0,0,0-1-1,1,1,0,0,0-1,1Z"/></g></g></svg>