<svg xmlns="http://www.w3.org/2000/svg" viewBox="0 0 56.73 19.98"><g id="Layer_2" data-name="Layer 2"><g id="Layer_1-2" data-name="Layer 1"><path d="M3.51,16A1.09,1.09,0,0,1,3,16l-.45-.12a2.25,2.25,0,0,1-1-.64A4,4,0,0,1,.9,14.16.71.71,0,0,0,.85,14a.91.91,0,0,0-.07-.23s0,0,0,0,0,0,0-.08a.12.12,0,0,1,0-.09v-1.2a.23.23,0,0,1,0-.09s0-.07,0-.09,0,0,0-.06a.41.41,0,0,1,0-.18c0-.08,0-.13,0-.15V11.7a1.87,1.87,0,0,1-.67-.87A2.88,2.88,0,0,1,0,9.72c0-.22,0-.43,0-.64A1.58,1.58,0,0,1,.3,8.46a2.85,2.85,0,0,1,.35-.55L1,7.41V7.35a6.47,6.47,0,0,1-.33-.7,2,2,0,0,1-.15-.74V5.76a2.82,2.82,0,0,1,.23-.91,1.58,1.58,0,0,1,.64-.68L1.77,4a.09.09,0,0,0,.06,0h0s0,0,0,0A.27.27,0,0,0,2,3.9l.09,0H3.24q0-.27,0-.6a2.23,2.23,0,0,1,.15-.63,2.38,2.38,0,0,1,1-1.14,3,3,0,0,1,1.44-.36,2.73,2.73,0,0,1,.74.09,6.12,6.12,0,0,1,.67.24h.09a2.1,2.1,0,0,1,.9-.78A9.59,9.59,0,0,1,9.42.27a3.63,3.63,0,0,1,.84-.19,8.42,8.42,0,0,1,.9,0h.39l.42,0,.42.12a1,1,0,0,1,.39.18s.07,0,.11.08.06.07.1.07a5.46,5.46,0,0,1,1,1.31,3.44,3.44,0,0,1,.33,1.63c0,.12,0,.26,0,.41a2.57,2.57,0,0,1-.07.46A1.78,1.78,0,0,1,14,4.8a4.71,4.71,0,0,1-.37.45,3.19,3.19,0,0,1-2.4,1,1.76,1.76,0,0,1-.42,0l-.42-.11a.76.76,0,0,1-.22-.1.94.94,0,0,0-.26-.11h0a1.66,1.66,0,0,1-.84,1.08A.31.31,0,0,1,8.93,7a.47.47,0,0,0-.17.07l-.21.09H7.62V8.46a.23.23,0,0,0,0,.09v.12a2.61,2.61,0,0,1-.42.72q-.27.33-.57.63A2.42,2.42,0,0,1,8,11.13a5.5,5.5,0,0,1,.45,1.74h0a6.56,6.56,0,0,1,1.08-.09h.27a1.53,1.53,0,0,1,.3,0,.45.45,0,0,1,.19.08.76.76,0,0,1,.2.13.25.25,0,0,1,.15.09.25.25,0,0,0,.15.09h0l.21-.15a1.67,1.67,0,0,1,.61-.22,4.62,4.62,0,0,1,.65-.05h.84A1.86,1.86,0,0,1,14,13a2.18,2.18,0,0,1,1.19,1.23,4.82,4.82,0,0,1,.34,1.71,2.86,2.86,0,0,1-.09.75,2,2,0,0,1-.33.66,8.33,8.33,0,0,1-.78.84,2,2,0,0,1-1,.45,2.93,2.93,0,0,1-.54.11l-.42,0h-1a.34.34,0,0,1-.15,0,.37.37,0,0,0-.15-.05l-.18-.09H10.8a1.5,1.5,0,0,0-.27.26,1.55,1.55,0,0,1-.36.31,3.05,3.05,0,0,1-1.08.39A7.3,7.3,0,0,1,8,19.62H7.32a5,5,0,0,1-.61-.15,3.66,3.66,0,0,1-.59-.24l-.66-.33s-.11,0-.21-.15a5.26,5.26,0,0,1-1.44-2q-.06-.18-.12-.39A1.38,1.38,0,0,0,3.51,16Zm.19-1a.32.32,0,0,1,.25.12.87.87,0,0,1,.17.3,2.37,2.37,0,0,1,.09.36q0,.18.06.3a2.17,2.17,0,0,0,.15.35,2.89,2.89,0,0,1,.15.31,5,5,0,0,0,.34.59,5.53,5.53,0,0,0,.41.52,2.32,2.32,0,0,0,.68.53,6.26,6.26,0,0,0,.79.34A2.62,2.62,0,0,0,7.9,19a3.87,3.87,0,0,0,.92-.1,8.52,8.52,0,0,0,.86-.26l.12,0a.92.92,0,0,0,.37-.51.44.44,0,0,1,.44-.33.93.93,0,0,1,.42.09,3.35,3.35,0,0,1,.36.21h1.2l.28,0,.28,0,.23-.06a.77.77,0,0,0,.45-.24q.21-.21.36-.39a2,2,0,0,0,.46-.61,1.93,1.93,0,0,0,.11-.77,3.21,3.21,0,0,0-.51-1.8L14,13.82a.61.61,0,0,0-.3-.17A1.72,1.72,0,0,0,13,13.5H11.78a.64.64,0,0,0-.39.15.94.94,0,0,0-.18.24l-.12.23a.25.25,0,0,1-.24.1.39.39,0,0,1-.36-.19,1.91,1.91,0,0,0-.27-.35l-.17-.09-.16-.09H9.41a4.72,4.72,0,0,0-.75.05,1.18,1.18,0,0,0-.6.37c-.05,0-.14.15-.31.33a1.87,1.87,0,0,1-.3.3l-.09.09-.06.06H7.18a.27.27,0,0,1-.3-.3.49.49,0,0,1,.06-.27,1.17,1.17,0,0,1,.21-.3l.27-.3a.51.51,0,0,1,0-.09.34.34,0,0,0,0-.09l.12-.21a1.41,1.41,0,0,0,0-.28v-.29a2.19,2.19,0,0,0-.27-1.12,1.69,1.69,0,0,0-.87-.71.8.8,0,0,0-.34-.12.87.87,0,0,1-.35-.12.33.33,0,0,1-.24-.33.35.35,0,0,1,.16-.3A1,1,0,0,0,6,9.63a2.47,2.47,0,0,0,.3-.27,1.68,1.68,0,0,0,.24-.27.46.46,0,0,0,.15-.19,1.13,1.13,0,0,1,.15-.23.77.77,0,0,0,.14-.36c0-.12,0-.24,0-.36s0-.31,0-.45a1.31,1.31,0,0,0-.11-.42.41.41,0,0,0-.13-.24.3.3,0,0,1-.11-.24.24.24,0,0,1,.12-.22A.5.5,0,0,1,7,6.3H7l.14,0,.13,0a3.35,3.35,0,0,0,.76.09,1.47,1.47,0,0,0,.7-.16.82.82,0,0,0,.41-.59,4.34,4.34,0,0,1,.09-.52C9.3,5,9.43,5,9.65,5A.37.37,0,0,1,9.9,5a.93.93,0,0,0,.26.15l.38.15.37.15h.42a4,4,0,0,0,.75-.07,1.6,1.6,0,0,0,.7-.32l.6-.6a1,1,0,0,0,.27-.57V3.36c0-.16,0-.31,0-.46a.91.91,0,0,0-.1-.47c-.1-.22-.21-.42-.32-.61a1.89,1.89,0,0,0-.46-.53.38.38,0,0,1-.17-.12A.83.83,0,0,0,12.37,1a1.73,1.73,0,0,0-.44-.15,5.27,5.27,0,0,0-.78-.09l-.64,0a4.05,4.05,0,0,0-.62.07c-.34.1-.68.22-1,.35A2.12,2.12,0,0,0,8,1.8a1,1,0,0,0-.19.32c0,.11-.14.16-.3.16l-.24,0a1.39,1.39,0,0,0-.4-.18l-.41-.15a1.71,1.71,0,0,0-.3-.09,1.53,1.53,0,0,0-.3,0,2.39,2.39,0,0,0-.63.09,2,2,0,0,0-.6.27,1.71,1.71,0,0,0-.45.44A1.2,1.2,0,0,0,4,3.21V4.32a.4.4,0,0,1-.11.29.33.33,0,0,1-.25.1H3.49l-.16,0a.62.62,0,0,0-.18,0,1,1,0,0,0-.27-.06H2.31A.6.6,0,0,0,2,4.62a1,1,0,0,0-.67.51A2,2,0,0,0,1.23,6a1.44,1.44,0,0,0,.09.53A2.91,2.91,0,0,0,1.56,7a.8.8,0,0,1,.36.09.29.29,0,0,1,.18.27.3.3,0,0,1-.16.29,1.29,1.29,0,0,0-.32.19A.69.69,0,0,0,1.38,8a3.66,3.66,0,0,0-.51.8,2.13,2.13,0,0,0-.21.88,2.59,2.59,0,0,0,.07.57,1.49,1.49,0,0,0,.22.54,1,1,0,0,0,.47.36.43.43,0,0,1,.29.42.4.4,0,0,1-.11.27.57.57,0,0,0-.13.27,1.54,1.54,0,0,0-.07.42,3.24,3.24,0,0,0,0,.45,2.77,2.77,0,0,0,.06.62,3.21,3.21,0,0,0,.21.58,1.37,1.37,0,0,0,.59.77,4.11,4.11,0,0,0,1,.28.41.41,0,0,0,.24-.13A.31.31,0,0,1,3.7,15Z"/><path d="M26.73,20a1.42,1.42,0,0,1-.78-.21,1.77,1.77,0,0,1-.55-.54,2.35,2.35,0,0,1-.35-.73,3.91,3.91,0,0,1-.15-.83l-.24,0a3.49,3.49,0,0,1-.84.09,2.64,2.64,0,0,1-1.31-.34,1.31,1.31,0,0,1-.61-1.25s0-.14,0-.31a.64.64,0,0,1,.09-.32,5,5,0,0,1-.85,0,1.31,1.31,0,0,0-.27,0l-.51-.12a1.78,1.78,0,0,1-.49-.18,2.54,2.54,0,0,1-1.18-1,2.75,2.75,0,0,1-.48-1.52,2.6,2.6,0,0,1,.07-.7,1.72,1.72,0,0,1,.32-.56l-.32-.12a3.26,3.26,0,0,1-1.14-1,2.22,2.22,0,0,1-.49-1.41,1.89,1.89,0,0,1,.24-1,2.46,2.46,0,0,1,.75-.71,2.42,2.42,0,0,1-.39-1.35,2.54,2.54,0,0,1,.24-1,1.28,1.28,0,0,1,.72-.74A1.06,1.06,0,0,1,18.66,4a6.74,6.74,0,0,1,.81.09,3.57,3.57,0,0,1,.9-.88,2.13,2.13,0,0,1,1.21-.35,3,3,0,0,1,1.26.3,1.78,1.78,0,0,1,.93.9A1.05,1.05,0,0,0,24.1,4a1.33,1.33,0,0,1,.42-.06,3.73,3.73,0,0,1,.72.06,1.1,1.1,0,0,1,.51.24l.24.23.24.22a3.17,3.17,0,0,1,1.13-1.14,2.87,2.87,0,0,1,1.49-.42,1.62,1.62,0,0,1,.57.09A1.7,1.7,0,0,1,30.31,2a3.46,3.46,0,0,1,1.48-.3A2.84,2.84,0,0,1,33,2a2.12,2.12,0,0,1,.94.81,1.51,1.51,0,0,1,1,0,2,2,0,0,1,.84.46,2.52,2.52,0,0,1,.58.83,2.33,2.33,0,0,1,.23,1,3.58,3.58,0,0,1-.45,1.77,1.8,1.8,0,0,1,.55.89,3.71,3.71,0,0,1,.17,1.06,3.83,3.83,0,0,1-.4,1.76,3.54,3.54,0,0,1-1.16,1.3l-.33.15L34.8,12a1,1,0,0,1,0,.24v.24a2,2,0,0,1-.12.71,3.83,3.83,0,0,1-.3.61,2.53,2.53,0,0,1-1,.92,5.28,5.28,0,0,1-1.29.43.51.51,0,0,1,0,.21,1.63,1.63,0,0,0,0,.24,2.21,2.21,0,0,1-.38,1.31,5.72,5.72,0,0,1-.88,1,2,2,0,0,1-.71.38,2.78,2.78,0,0,1-.76.1H29l-.15.36a2.49,2.49,0,0,1-.9.95A2.33,2.33,0,0,1,26.73,20Zm-1.05-2.76c0,.22.05.44.07.66a2.46,2.46,0,0,0,.17.62,1.29,1.29,0,0,0,.31.46.76.76,0,0,0,.53.18,1.49,1.49,0,0,0,.47-.09,2.69,2.69,0,0,0,.48-.24,1.58,1.58,0,0,0,.37-.36.76.76,0,0,0,.15-.45.27.27,0,0,0,0-.12l-.06-.12a.69.69,0,0,1-.11-.13.47.47,0,0,1,0-.23q0-.45.42-.45a.37.37,0,0,1,.27.09.83.83,0,0,1,.16.21l.12.15a.93.93,0,0,0,.39.12,1.57,1.57,0,0,0,.68-.16,2.1,2.1,0,0,0,.62-.45,2.83,2.83,0,0,0,.46-.63,1.53,1.53,0,0,0,.18-.71c0-.06,0-.13,0-.22s0-.19,0-.29a.45.45,0,0,1-.12-.33.54.54,0,0,1,0-.22.36.36,0,0,1,.23-.17,3.57,3.57,0,0,0,1.35-.27,2.56,2.56,0,0,0,1.15-1,.58.58,0,0,0,.17-.46,2.81,2.81,0,0,0-.08-.53L33.84,12a.37.37,0,0,1-.08-.2c0-.22.08-.35.23-.4l.46-.14a3.13,3.13,0,0,0,1.16-1.12A2.82,2.82,0,0,0,36,8.67,3,3,0,0,0,35.92,8a1.1,1.1,0,0,0-.28-.56,0,0,0,0,0,0,0l-.12,0a1.28,1.28,0,0,1-.31-.15A.41.41,0,0,1,35,6.9a.71.71,0,0,1,.05-.3.56.56,0,0,1,.1-.15l.18-.19.06-.11A2.37,2.37,0,0,0,35.73,5a1.5,1.5,0,0,0-.42-1,1.24,1.24,0,0,0-.93-.47.48.48,0,0,0-.21.06,2,2,0,0,0-.29.15.42.42,0,0,1-.22.09.33.33,0,0,1-.32-.15c-.05-.1-.09-.2-.13-.3l-.06-.13A.68.68,0,0,0,33,3a1.1,1.1,0,0,0-.5-.36,1.85,1.85,0,0,0-.67-.12,3.09,3.09,0,0,0-.95.15.91.91,0,0,0-.61.66.5.5,0,0,1,0,.12.34.34,0,0,0,0,.09c0,.16-.08.31-.12.44s-.16.19-.36.19a1.21,1.21,0,0,1-.48-.09A1.38,1.38,0,0,0,28.86,4a2.27,2.27,0,0,0-.65.11,2.5,2.5,0,0,0-.64.3,1.76,1.76,0,0,0-.5.48,1,1,0,0,0-.19.61v.15s0,.07,0,.08a.35.35,0,0,1,0,.07q0,.39-.36.39A.49.49,0,0,1,26.2,6a1.78,1.78,0,0,1-.28-.38s0,0,0,0l-.06-.12-.25-.3A.75.75,0,0,0,25.34,5a.94.94,0,0,0-.4-.18,3.43,3.43,0,0,0-.5,0l-.21,0a.35.35,0,0,0-.21.1.48.48,0,0,1-.36.24.38.38,0,0,1-.33-.16,1.29,1.29,0,0,1-.18-.35l-.06-.12a.27.27,0,0,1,0-.12,1.73,1.73,0,0,0-1.45-.66,1.64,1.64,0,0,0-1.08.41,2.54,2.54,0,0,0-.72,1,.2.2,0,0,1-.19.12,1.43,1.43,0,0,0-.46-.27,1,1,0,0,0-.5,0,.63.63,0,0,0-.4.27,1.05,1.05,0,0,0-.17.67,1.34,1.34,0,0,0,.08.48,1.79,1.79,0,0,0,.19.45.39.39,0,0,0,.18.18,1.34,1.34,0,0,1,.21.2.37.37,0,0,1,.09.25q0,.33-.12.36l-.33.09h-.15a2.36,2.36,0,0,0-.55.44.82.82,0,0,0-.29.61,1.36,1.36,0,0,0,.21.77,2.05,2.05,0,0,0,.52.54,3.44,3.44,0,0,0,.68.37,5.7,5.7,0,0,0,.69.24.55.55,0,0,1,.24.18.38.38,0,0,1,0,.5l-.26.25a4,4,0,0,0-.32.36.85.85,0,0,0-.16.54,1.56,1.56,0,0,0,.26.87,2.47,2.47,0,0,0,.65.68,3,3,0,0,0,.87.43,3.23,3.23,0,0,0,.94.15,2.42,2.42,0,0,0,.76-.12h.09l.12,0a.37.37,0,0,1,.42.42.2.2,0,0,1,0,.09L23,15.3l-.09.21a2.55,2.55,0,0,0-.17.33.92.92,0,0,0-.07.36.59.59,0,0,0,.37.59,1.9,1.9,0,0,0,.77.16,2.74,2.74,0,0,0,.66-.09l.51-.09h.15a.52.52,0,0,1,.54.42Zm-4-7q0-.33.09-.42a.4.4,0,0,1,.24-.09.39.39,0,0,1,.41.33,3.38,3.38,0,0,1,.07.57.8.8,0,0,0,0,.21,2.45,2.45,0,0,1,.08.36,2.24,2.24,0,0,0,.08.39,2.2,2.2,0,0,1,0,.27.49.49,0,0,0,0,.12.49.49,0,0,1,0,.12q0,.09.06.09H23l1.2-.3.12,0,.12,0h.09a.49.49,0,0,1,.25.06.29.29,0,0,1,.11.27.33.33,0,0,1-.23.33l-.4.15-1.08.27a1.26,1.26,0,0,1-.3,0,.64.64,0,0,1-.45-.16,1.22,1.22,0,0,1-.29-.41,2.77,2.77,0,0,1-.15-.49c0-.17-.05-.33-.07-.47s-.08-.36-.11-.55A4,4,0,0,1,21.72,10.17Zm3,.18q0-1.2,1-1.2a1.17,1.17,0,0,1,.85.26,1.15,1.15,0,0,1,.35.94.83.83,0,0,1-.3.69,1.07,1.07,0,0,1-.69.24,1.86,1.86,0,0,1-.84-.18A.76.76,0,0,1,24.72,10.35Zm1.17.21c.1,0,.16,0,.19-.1a.45.45,0,0,0,0-.23A.4.4,0,0,0,26,10a.28.28,0,0,0-.21-.11h-.15a.12.12,0,0,0-.12.06q-.24.24-.06.42A.58.58,0,0,0,25.89,10.56Zm1.38-1.35V9.12a.31.31,0,0,1,.11-.25.33.33,0,0,1,.25-.11.74.74,0,0,1,.27.15l.48,1.2a1.26,1.26,0,0,0,.13.26l.17.22a.64.64,0,0,0,.1-.13l.08-.14.42-1.41a.36.36,0,0,1,.39-.33.28.28,0,0,1,.23.11,1,1,0,0,0,.16.19v.21a.12.12,0,0,1,0,.09.89.89,0,0,0-.07.24c0,.12-.07.25-.11.39s-.08.27-.12.38a2.23,2.23,0,0,1-.09.22,2,2,0,0,1-.33.66.74.74,0,0,1-.63.33.7.7,0,0,1-.62-.34,6.58,6.58,0,0,1-.37-.68Zm3.42-.39c0-.32.1-.52.31-.61l.71-.29.24,0q.42,0,.42.36t-.15.27l-.33.09-.27.09-.15.06v.45L32.13,9a2.3,2.3,0,0,1,.64-.09.37.37,0,0,1,.23.11.33.33,0,0,1-.1.57,1.28,1.28,0,0,1-.38.07l-.9.24.06.24q.06.21.12.21a2.62,2.62,0,0,0,.66-.06,1.34,1.34,0,0,1,.36-.06.8.8,0,0,1,.3.06q.15.06.15.3a.91.91,0,0,1,0,.21s0,.08-.13.12a1.31,1.31,0,0,1-.59.14H32a1.34,1.34,0,0,1-.8-.16,1.49,1.49,0,0,1-.34-.71c0-.18-.08-.41-.12-.7A5.46,5.46,0,0,1,30.69,8.82Z"/><path d="M51.41,17.22a.24.24,0,0,1-.13,0l-.13-.08a6.37,6.37,0,0,1-.5-.55,1.16,1.16,0,0,1-.22-.74,1.33,1.33,0,0,1,.13-.58l.29-.59v0a2,2,0,0,1-.3-.28,2.33,2.33,0,0,0-.3-.29,1.35,1.35,0,0,1-.24-.61,4.23,4.23,0,0,1-.06-.65A5.73,5.73,0,0,1,49,13a4.76,4.76,0,0,1-1.08.06,4.68,4.68,0,0,1-1.23-.22c-.4-.13-.75-.26-1.05-.38a5.23,5.23,0,0,1-.12,1.16,1.74,1.74,0,0,1-.72,1,4,4,0,0,1,.73.75,1.56,1.56,0,0,1,.32,1,3.14,3.14,0,0,1-.25,1.19.92.92,0,0,1-.91.58,1.36,1.36,0,0,1-.29,0,1.27,1.27,0,0,0-.28,0h0l-.12.18a2.26,2.26,0,0,1-1.94,1.11h-.44a1.34,1.34,0,0,1-.4-.11,6.2,6.2,0,0,1-1-.64,1.22,1.22,0,0,1-.54-1,.61.61,0,0,1,.1-.36c.07-.1.15-.22.23-.36l0-.06a0,0,0,0,1,0,0l0,0L40,16.65l-.62-.45a.8.8,0,0,1-.28-.69,1.48,1.48,0,0,1,.09-.45l.19-.57a4,4,0,0,1,.24-.55l.23-.41a2.94,2.94,0,0,1-.69-.67,3,3,0,0,1-.41-.77,3.63,3.63,0,0,1-.18-.76,5.48,5.48,0,0,1,0-.65,3.67,3.67,0,0,1,.06-.57,5.18,5.18,0,0,1,.18-.73c.08-.25.16-.49.25-.71a1.22,1.22,0,0,1,.32-.48l-.06-.06a1.93,1.93,0,0,1-.53-.63,2,2,0,0,1-.13-.81c0-.18,0-.34,0-.48a.83.83,0,0,1,.17-.42l.25-.3a1.47,1.47,0,0,0,.2-.27A.72.72,0,0,0,39.07,5a2.6,2.6,0,0,1-.19-.32,2.38,2.38,0,0,1-.21-1,4.16,4.16,0,0,1,.18-1.2,2.88,2.88,0,0,1,.6-1.08A3.14,3.14,0,0,1,40.51.57,4.14,4.14,0,0,1,42.12.24a1.06,1.06,0,0,1,.94.36,4.43,4.43,0,0,1,.56.9H44l.27,0A1.35,1.35,0,0,1,45.39,2a2,2,0,0,1,.39,1.23,1.36,1.36,0,0,1-.21.77,5.48,5.48,0,0,1-.51.64,4.09,4.09,0,0,1,.51.69,1.58,1.58,0,0,1,.21.81,2,2,0,0,1-.3,1,1.9,1.9,0,0,1,1.56.6,1.59,1.59,0,0,1,.7-.39,3.58,3.58,0,0,1,.83-.09,2,2,0,0,1,.46,0l.44.1V7.29a2.76,2.76,0,0,0,0-.51,2.59,2.59,0,0,1,0-.48,1.76,1.76,0,0,1,.21-.88,4.94,4.94,0,0,1,.54-.77c-.2-.2-.38-.39-.53-.57a1.09,1.09,0,0,1-.22-.72,1.27,1.27,0,0,1,.28-.79A2.12,2.12,0,0,1,50.34,2a.44.44,0,0,0,.12-.1,1.44,1.44,0,0,0,.09-.2A1.94,1.94,0,0,1,51.36.51,2.84,2.84,0,0,1,53,0a3.07,3.07,0,0,1,1.48.29,3.29,3.29,0,0,1,1.08.82,3.47,3.47,0,0,1,.65,1.13,3.63,3.63,0,0,1,.21,1.18,3.28,3.28,0,0,1-.23,1.1,3,3,0,0,1-.7,1.09v0a4.27,4.27,0,0,1,.6.8,2.81,2.81,0,0,1,.3.94,1.49,1.49,0,0,0,0,.17c0,.09,0,.15,0,.19V7.8a1,1,0,0,1-.27.72l-.54.6a2.42,2.42,0,0,0,.24.2,1.07,1.07,0,0,0,.27.16,1.56,1.56,0,0,1,.42.69,2.59,2.59,0,0,1,.15.81,1.45,1.45,0,0,1-.51,1.14.36.36,0,0,0-.14.09.29.29,0,0,1-.16.09l0,.06a3.59,3.59,0,0,1,.64,1,2.84,2.84,0,0,1,.26,1.17,1.74,1.74,0,0,1-.2.78,1.84,1.84,0,0,1-.49.63l-.27.17a2,2,0,0,0-.27.19l-.06,0v.09l.33.53a1.11,1.11,0,0,1,.18.61,2,2,0,0,1-2.27,2.22,2.57,2.57,0,0,1-.76-.13,2.33,2.33,0,0,1-.8-.44,2.14,2.14,0,0,1-.6-.78A2,2,0,0,1,51.41,17.22ZM55,16.81s-.09.05-.21,0a.75.75,0,0,1-.33-.1.49.49,0,0,1-.21-.24q-.06-.15.12-.39a2.76,2.76,0,0,0,.17-.22.27.27,0,0,1,.19-.11h.18l.15-.06.09,0a.09.09,0,0,0,.06,0,.55.55,0,0,1,.14-.09l.09-.06a3.3,3.3,0,0,0,.45-.48.92.92,0,0,0,.18-.59,1.73,1.73,0,0,0-.11-.63c-.06-.18-.15-.38-.25-.6a.92.92,0,0,0-.12-.16.6.6,0,0,0-.15-.14A1.5,1.5,0,0,0,55,12.7c-.17,0-.25-.19-.25-.41v-.12l.06-.06s.07-.06.09-.06a6.84,6.84,0,0,1,.74-.4A.66.66,0,0,0,56,11a1.22,1.22,0,0,0-.36-1,3.68,3.68,0,0,0-.93-.54.37.37,0,0,1-.09-.27.45.45,0,0,1,.18-.36l.37-.28a2.8,2.8,0,0,0,.38-.32.58.58,0,0,0,.18-.42,2.47,2.47,0,0,0-.19-1,1.45,1.45,0,0,0-.6-.71,1.61,1.61,0,0,0-.37-.21c-.11,0-.16-.16-.16-.36a.25.25,0,0,1,.07-.21.77.77,0,0,1,.18-.1l.2-.08a.72.72,0,0,0,.2-.09,1.92,1.92,0,0,0,.57-.88,3.2,3.2,0,0,0,.16-1,2.94,2.94,0,0,0-.21-.9A2.65,2.65,0,0,0,55,1.52a2.42,2.42,0,0,0-.85-.6A3.1,3.1,0,0,0,52.93.69a1.74,1.74,0,0,0-1.22.44,1.33,1.33,0,0,0-.47,1,.29.29,0,0,1-.26.3.83.83,0,0,0-.42.21,2.38,2.38,0,0,0-.4.51.8.8,0,0,0-.06.3.54.54,0,0,0,.18.41q.19.17.39.3l.38.25a.34.34,0,0,1,.19.3v0c-.08.2-.16.29-.25.27s-.17,0-.27.12a1.67,1.67,0,0,0-.39.36,1.2,1.2,0,0,0-.23.45v.39a5.69,5.69,0,0,0,.06.83,1,1,0,0,0,.4.67A.38.38,0,0,1,51,8a1,1,0,0,1,.11.43.53.53,0,0,1-.06.26.22.22,0,0,1-.21.1.35.35,0,0,1-.24-.06.64.64,0,0,0-.21-.12.58.58,0,0,0-.19,0A.2.2,0,0,1,50,8.55l-.48-.36A2.17,2.17,0,0,0,49,7.92h-.42A5.15,5.15,0,0,0,48,8a.69.69,0,0,0-.47.33,1.3,1.3,0,0,0-.13.3c0,.1-.13.15-.29.15a.37.37,0,0,1-.27-.12,6.23,6.23,0,0,0-.44-.55.83.83,0,0,0-.65-.26,2,2,0,0,0-.54.08,1.92,1.92,0,0,0-.51.22.31.31,0,0,0-.17.11c-.07.07-.11.1-.13.1h-.09q-.36,0-.36-.33c0-.16,0-.25.15-.28a.41.41,0,0,0,.24-.23l.09-.18.39-.39a1.12,1.12,0,0,0,.27-.78V5.88a.84.84,0,0,0-.17-.4.79.79,0,0,0-.31-.32h-.23l-.22,0a.37.37,0,0,1-.21-.33.23.23,0,0,1,.15-.24.49.49,0,0,0,.24-.21l.6-.6L45,3.53a.6.6,0,0,0,.08-.29A1.58,1.58,0,0,0,45,2.69a1,1,0,0,0-.34-.47.33.33,0,0,0-.23-.06H44a.69.69,0,0,0-.24.06l-.21.09h-.12a.27.27,0,0,1-.3-.19L43,1.74a1,1,0,0,0-.47-.64A1.16,1.16,0,0,0,42,1a2.66,2.66,0,0,0-1.28.29,2.54,2.54,0,0,0-.84.7,2.78,2.78,0,0,0-.45.87,2.83,2.83,0,0,0-.13.81,2.06,2.06,0,0,0,.09.62,1.07,1.07,0,0,0,.33.49.64.64,0,0,0,.34.15c.09,0,.14.11.14.33s-.11.23-.32.39a2.86,2.86,0,0,0-.46.42.6.6,0,0,0-.18.33,2.58,2.58,0,0,0,0,.42.79.79,0,0,0,.18.59,1.28,1.28,0,0,0,.4.25l.42.18a.31.31,0,0,1,.2.3c0,.18-.08.28-.23.3a.56.56,0,0,0-.37.21A2,2,0,0,0,39.6,9c-.08.18-.16.38-.23.59a4.61,4.61,0,0,0-.16.64,3.15,3.15,0,0,0-.06.54q0,.18,0,.48a2.61,2.61,0,0,0,.15.63,2.45,2.45,0,0,0,.35.63,1.4,1.4,0,0,0,.63.45,1.36,1.36,0,0,0,.44.11c.15,0,.23.11.23.31a.36.36,0,0,1-.23.38.91.91,0,0,0-.37.22c0,.06-.1.16-.17.29a4.08,4.08,0,0,0-.19.42l-.17.42a.88.88,0,0,0-.07.31.57.57,0,0,0,.28.53,2.75,2.75,0,0,0,.59.25l.28.11c.09,0,.14.12.14.28s-.11.3-.33.42a.81.81,0,0,0-.42.48v.09a.68.68,0,0,0,.39.57q.39.24.63.36a2.07,2.07,0,0,0,.37.08h.38a1.39,1.39,0,0,0,1.38-.93.68.68,0,0,0,.1-.28c0-.09.11-.14.29-.14a1.6,1.6,0,0,1,.39,0,1.76,1.76,0,0,0,.42,0c.28,0,.43-.12.46-.36a5.6,5.6,0,0,0,0-.69v-.27a1.8,1.8,0,0,0-.36-.54,2.49,2.49,0,0,0-.51-.45,1.06,1.06,0,0,0-.47-.12c-.15,0-.22-.11-.22-.33a.43.43,0,0,1,.06-.24,1.26,1.26,0,0,1,.33-.22,3.64,3.64,0,0,0,.39-.23,1.43,1.43,0,0,0,.32-.28.87.87,0,0,0,.16-.47c0-.14,0-.28,0-.43a.8.8,0,0,0-.14-.47.41.41,0,0,0-.3-.22.26.26,0,0,1-.21-.29.93.93,0,0,1,.09-.4.33.33,0,0,1,.33-.2.92.92,0,0,1,.42.24,3.61,3.61,0,0,0,.55.36l.9.32a5.67,5.67,0,0,0,1.36.28,4.15,4.15,0,0,0,1.49-.13c.43-.13.66-.25.7-.35l.43-.75A.21.21,0,0,1,50.7,11l.24,0a.37.37,0,0,1,.22.08.28.28,0,0,1,.11.25.32.32,0,0,1-.06.2l-.13.13a.86.86,0,0,1-.08.18.63.63,0,0,0-.08.21l-.12.12a.35.35,0,0,0-.1.21.87.87,0,0,0-.06.32V13a1.15,1.15,0,0,0,0,.24.61.61,0,0,0,.08.27,1.58,1.58,0,0,0,.6.5c.25.13.38.29.38.49v.09l-.09.18-.32.48a.93.93,0,0,0-.16.54.59.59,0,0,0,.12.42,3.5,3.5,0,0,0,.28.27.55.55,0,0,0,.28.15,1.41,1.41,0,0,0,.51,0c.19,0,.28.09.28.33a.22.22,0,0,1-.08.18l-.18.12a.65.65,0,0,0-.18.15.36.36,0,0,0-.07.24.94.94,0,0,0,.18.57,1.58,1.58,0,0,0,.46.43,2.2,2.2,0,0,0,.63.26,2.67,2.67,0,0,0,.69.09,1,1,0,0,0,1-.54,2,2,0,0,0,.17-1,.78.78,0,0,0-.1-.3,3.33,3.33,0,0,0-.16-.3Z"/></g></g></svg>