<svg xmlns="http://www.w3.org/2000/svg" viewBox="0 0 56.76 20.19"><g id="Layer_2" data-name="Layer 2"><g id="Layer_1-2" data-name="Layer 1"><path d="M3.51,16A1.09,1.09,0,0,1,3,16l-.45-.12a2.25,2.25,0,0,1-1-.64A4,4,0,0,1,.9,14.16.71.71,0,0,0,.85,14a.91.91,0,0,0-.07-.23s0,0,0,0,0,0,0-.08a.12.12,0,0,1,0-.09v-1.2a.23.23,0,0,1,0-.09s0-.07,0-.09,0,0,0-.06a.41.41,0,0,1,0-.18c0-.08,0-.13,0-.15V11.7a1.87,1.87,0,0,1-.67-.87A2.88,2.88,0,0,1,0,9.72c0-.22,0-.43,0-.64A1.58,1.58,0,0,1,.3,8.46a2.85,2.85,0,0,1,.35-.55L1,7.41V7.35a6.47,6.47,0,0,1-.33-.7,2,2,0,0,1-.15-.74V5.76a2.82,2.82,0,0,1,.23-.91,1.58,1.58,0,0,1,.64-.68L1.77,4a.09.09,0,0,0,.06,0h0s0,0,0,0A.27.27,0,0,0,2,3.9l.09,0H3.24q0-.27,0-.6a2.23,2.23,0,0,1,.15-.63,2.38,2.38,0,0,1,1-1.14,3,3,0,0,1,1.44-.36,2.73,2.73,0,0,1,.74.09,6.12,6.12,0,0,1,.67.24h.09a2.1,2.1,0,0,1,.9-.78A9.59,9.59,0,0,1,9.42.27a3.63,3.63,0,0,1,.84-.19,8.42,8.42,0,0,1,.9,0h.39l.42,0,.42.12a1,1,0,0,1,.39.18s.07,0,.11.08.06.07.1.07a5.46,5.46,0,0,1,1,1.31,3.44,3.44,0,0,1,.33,1.63c0,.12,0,.26,0,.41a2.57,2.57,0,0,1-.07.46A1.78,1.78,0,0,1,14,4.8a4.71,4.71,0,0,1-.37.45,3.19,3.19,0,0,1-2.4,1,1.76,1.76,0,0,1-.42,0l-.42-.11a.76.76,0,0,1-.22-.1.94.94,0,0,0-.26-.11h0a1.66,1.66,0,0,1-.84,1.08A.31.31,0,0,1,8.93,7a.47.47,0,0,0-.17.07l-.21.09H7.62V8.46a.23.23,0,0,0,0,.09v.12a2.61,2.61,0,0,1-.42.72q-.27.33-.57.63A2.42,2.42,0,0,1,8,11.13a5.5,5.5,0,0,1,.45,1.74h0a6.56,6.56,0,0,1,1.08-.09h.27a1.53,1.53,0,0,1,.3,0,.45.45,0,0,1,.19.08.76.76,0,0,1,.2.13.25.25,0,0,1,.15.09.25.25,0,0,0,.15.09h0l.21-.15a1.67,1.67,0,0,1,.61-.22,4.62,4.62,0,0,1,.65-.05h.84A1.86,1.86,0,0,1,14,13a2.18,2.18,0,0,1,1.19,1.23,4.82,4.82,0,0,1,.34,1.71,2.86,2.86,0,0,1-.09.75,2,2,0,0,1-.33.66,8.33,8.33,0,0,1-.78.84,2,2,0,0,1-1,.45,2.93,2.93,0,0,1-.54.11l-.42,0h-1a.34.34,0,0,1-.15,0,.37.37,0,0,0-.15-.05l-.18-.09H10.8a1.5,1.5,0,0,0-.27.26,1.55,1.55,0,0,1-.36.31,3.05,3.05,0,0,1-1.08.39A7.3,7.3,0,0,1,8,19.62H7.32a5,5,0,0,1-.61-.15,3.66,3.66,0,0,1-.59-.24l-.66-.33s-.11,0-.21-.15a5.26,5.26,0,0,1-1.44-2q-.06-.18-.12-.39A1.38,1.38,0,0,0,3.51,16Z"/><path d="M25.05,17.76l-.59.11a3.37,3.37,0,0,1-.58,0,2.46,2.46,0,0,1-.6-.07,1.7,1.7,0,0,1-.55-.24,1.24,1.24,0,0,1-.43-.45,1.41,1.41,0,0,1-.16-.71.88.88,0,0,1,.1-.43.82.82,0,0,0,.11-.38h-1l-.09,0-.6-.13a2.27,2.27,0,0,1-.6-.23,2.61,2.61,0,0,1-1.07-1,2.58,2.58,0,0,1-.46-1.47,1.76,1.76,0,0,1,.12-.75,3.5,3.5,0,0,1,.45-.63l-.09,0-.51-.18a3.25,3.25,0,0,1-1.08-.9A2.11,2.11,0,0,1,17,9a1.68,1.68,0,0,1,.3-1.05,2.44,2.44,0,0,1,.81-.66v0a3,3,0,0,1-.33-.7,2.53,2.53,0,0,1-.12-.77,2.4,2.4,0,0,1,.21-.94,1.34,1.34,0,0,1,.63-.71A1.14,1.14,0,0,1,18.73,4L19,4a1.82,1.82,0,0,1,.44.08l.16.07h0l0,0a3.74,3.74,0,0,1,.85-.91,1.9,1.9,0,0,1,1.16-.35,2.41,2.41,0,0,1,1.95,1l.15.27h0a.61.61,0,0,0,.25-.06A1.58,1.58,0,0,1,24.6,4a2.29,2.29,0,0,1,.66.09,1.8,1.8,0,0,1,.6.33l.48.48h0a2.86,2.86,0,0,1,1-1.26,2.53,2.53,0,0,1,1.47-.48,1.38,1.38,0,0,1,.37.05l.38.1A1.69,1.69,0,0,1,30.38,2a2.92,2.92,0,0,1,1.42-.32A2.62,2.62,0,0,1,32.91,2a1.61,1.61,0,0,1,.84.88h0A.58.58,0,0,0,34,2.76a.68.68,0,0,1,.32-.09,1.56,1.56,0,0,1,.75.2,2.21,2.21,0,0,1,.63.51,2.37,2.37,0,0,1,.42.7,2.24,2.24,0,0,1,.15.81,3.19,3.19,0,0,1-.15,1,3.88,3.88,0,0,1-.39.85v.06a1.44,1.44,0,0,1,.63.84,3.68,3.68,0,0,1,.18,1.11,3.58,3.58,0,0,1-.4,1.7,4,4,0,0,1-1.1,1.3,1.35,1.35,0,0,1-.26.15l-.28.15a1.26,1.26,0,0,1,.12.57,1.76,1.76,0,0,1-.12.68,4.6,4.6,0,0,1-.3.58,2.21,2.21,0,0,1-1,1,5,5,0,0,1-1.35.37,1.5,1.5,0,0,1,0,.29v.34a2.24,2.24,0,0,1-.35,1.23,4.07,4.07,0,0,1-.85,1,2.15,2.15,0,0,1-1.32.45,1.28,1.28,0,0,1-.45-.06,1.9,1.9,0,0,0-.09.29,1.06,1.06,0,0,1-.09.25,2.32,2.32,0,0,1-.83.9,2.06,2.06,0,0,1-1.12.33,1.09,1.09,0,0,1-.61-.18,2.26,2.26,0,0,1-.53-.45,1.89,1.89,0,0,1-.38-.87c0-.32-.09-.63-.13-.93Zm-3.33-7.59a4,4,0,0,0,0,.62c0,.19.07.37.11.55s.05.3.07.47a2.77,2.77,0,0,0,.15.49,1.22,1.22,0,0,0,.29.41.64.64,0,0,0,.45.16,1.26,1.26,0,0,0,.3,0l1.08-.27.4-.15a.33.33,0,0,0,.23-.33.29.29,0,0,0-.11-.27.49.49,0,0,0-.25-.06h-.09l-.12,0-.12,0-1.2.3h-.06s0,0-.06-.09a.49.49,0,0,0,0-.12.49.49,0,0,1,0-.12,2.2,2.2,0,0,0,0-.27,2.24,2.24,0,0,1-.08-.39,2.45,2.45,0,0,0-.08-.36.8.8,0,0,1,0-.21,3.38,3.38,0,0,0-.07-.57.39.39,0,0,0-.41-.33.4.4,0,0,0-.24.09Q21.69,9.84,21.72,10.17Zm3,.18a.76.76,0,0,0,.36.75,1.86,1.86,0,0,0,.84.18,1.07,1.07,0,0,0,.69-.24.83.83,0,0,0,.3-.69,1.15,1.15,0,0,0-.35-.94,1.17,1.17,0,0,0-.85-.26Q24.72,9.15,24.72,10.35Zm1.17.21a.58.58,0,0,1-.42-.18q-.18-.18.06-.42a.12.12,0,0,1,.12-.06h.15A.28.28,0,0,1,26,10a.4.4,0,0,1,.1.22.45.45,0,0,1,0,.23C26.05,10.53,26,10.56,25.89,10.56Zm1.8-.18a6.58,6.58,0,0,0,.37.68.7.7,0,0,0,.62.34.74.74,0,0,0,.63-.33,2,2,0,0,0,.33-.66,2.23,2.23,0,0,0,.09-.22c0-.11.08-.24.12-.38s.07-.27.11-.39A.89.89,0,0,1,30,9.18a.12.12,0,0,0,0-.09V8.88a1,1,0,0,1-.16-.19.28.28,0,0,0-.23-.11.36.36,0,0,0-.39.33l-.42,1.41-.08.14a.64.64,0,0,1-.1.13l-.17-.22a1.26,1.26,0,0,1-.13-.26l-.48-1.2a.74.74,0,0,0-.27-.15.33.33,0,0,0-.25.11.31.31,0,0,0-.11.25v.09Zm3-1.56a5.46,5.46,0,0,0,.06.71c0,.29.08.52.12.7a1.49,1.49,0,0,0,.34.71,1.34,1.34,0,0,0,.8.16h.52a1.31,1.31,0,0,0,.59-.14c.08,0,.12-.08.13-.12a.91.91,0,0,0,0-.21q0-.24-.15-.3a.8.8,0,0,0-.3-.06,1.34,1.34,0,0,0-.36.06,2.62,2.62,0,0,1-.66.06s-.08-.07-.12-.21l-.06-.24.9-.24a1.28,1.28,0,0,0,.38-.07.33.33,0,0,0,.1-.57.37.37,0,0,0-.24-.11,2.37,2.37,0,0,0-.65.09l-.67.18V8.76l.15-.06.27-.09.33-.09q.15,0,.15-.27t-.42-.36l-.24,0L31,8.21C30.79,8.3,30.69,8.5,30.69,8.82Z"/><path d="M51.42,17.22a.27.27,0,0,1-.14,0l-.13-.08a6.37,6.37,0,0,1-.5-.55,1.16,1.16,0,0,1-.22-.74,1.33,1.33,0,0,1,.13-.58l.29-.59v0a2,2,0,0,1-.3-.28,2.33,2.33,0,0,0-.3-.29,1.35,1.35,0,0,1-.24-.61,4.23,4.23,0,0,1-.06-.65A5.73,5.73,0,0,1,49,13a4.76,4.76,0,0,1-1.08.06,4.68,4.68,0,0,1-1.23-.22c-.4-.13-.75-.26-1.05-.38a5.23,5.23,0,0,1-.12,1.16,1.74,1.74,0,0,1-.72,1,4,4,0,0,1,.73.75,1.56,1.56,0,0,1,.32,1,3,3,0,0,1-.26,1.19.91.91,0,0,1-.91.58,1.36,1.36,0,0,1-.29,0,1.27,1.27,0,0,0-.28,0h0l-.12.18A2.29,2.29,0,0,1,42,19.32h-.44a1.27,1.27,0,0,1-.4-.11,6.71,6.71,0,0,1-1-.64,1.22,1.22,0,0,1-.54-1,.61.61,0,0,1,.1-.36c.07-.1.15-.22.23-.36l0-.06a0,0,0,0,1,0,0l0,0-.06-.06-.6-.45a.82.82,0,0,1-.27-.69,1.48,1.48,0,0,1,.09-.45l.19-.57a4,4,0,0,1,.24-.55l.23-.41a2.94,2.94,0,0,1-.69-.67,3,3,0,0,1-.41-.77,3.63,3.63,0,0,1-.18-.76,5.48,5.48,0,0,1,0-.65,3.67,3.67,0,0,1,.06-.57,5.18,5.18,0,0,1,.18-.73c.08-.25.16-.49.25-.71a1.22,1.22,0,0,1,.32-.48l-.06-.06a1.93,1.93,0,0,1-.53-.63,2,2,0,0,1-.13-.81c0-.18,0-.34,0-.48a.83.83,0,0,1,.17-.42l.25-.3a1.47,1.47,0,0,0,.2-.27A.72.72,0,0,0,39.07,5a2.6,2.6,0,0,1-.19-.32,2.38,2.38,0,0,1-.21-1,4.16,4.16,0,0,1,.18-1.2,2.88,2.88,0,0,1,.6-1.08A3.14,3.14,0,0,1,40.51.57,4.14,4.14,0,0,1,42.12.24a1.06,1.06,0,0,1,.94.36,4.43,4.43,0,0,1,.56.9H44l.27,0A1.35,1.35,0,0,1,45.39,2a2,2,0,0,1,.39,1.23,1.36,1.36,0,0,1-.21.77,5.48,5.48,0,0,1-.51.64,4.09,4.09,0,0,1,.51.69,1.58,1.58,0,0,1,.21.81,2,2,0,0,1-.3,1,1.9,1.9,0,0,1,1.56.6,1.59,1.59,0,0,1,.7-.39,3.58,3.58,0,0,1,.83-.09,2,2,0,0,1,.46,0l.44.1V7.29a2.76,2.76,0,0,0,0-.51,2.59,2.59,0,0,1,0-.48,1.76,1.76,0,0,1,.21-.88,4.94,4.94,0,0,1,.54-.77c-.2-.2-.38-.39-.53-.57a1.09,1.09,0,0,1-.22-.72,1.27,1.27,0,0,1,.28-.79A2.12,2.12,0,0,1,50.34,2a.44.44,0,0,0,.12-.1,1.44,1.44,0,0,0,.09-.2A1.94,1.94,0,0,1,51.36.51,2.84,2.84,0,0,1,53,0a3.07,3.07,0,0,1,1.48.29,3.29,3.29,0,0,1,1.08.82,3.47,3.47,0,0,1,.65,1.13,3.63,3.63,0,0,1,.21,1.18,3.28,3.28,0,0,1-.23,1.1,3,3,0,0,1-.7,1.09v0a4.27,4.27,0,0,1,.6.8,2.81,2.81,0,0,1,.3.94,1.49,1.49,0,0,0,0,.17c0,.09,0,.15,0,.19V7.8a1,1,0,0,1-.27.72l-.54.6a2.42,2.42,0,0,0,.24.2,1.07,1.07,0,0,0,.27.16,1.67,1.67,0,0,1,.43.69,2.4,2.4,0,0,1,.17.81,1.45,1.45,0,0,1-.51,1.14.36.36,0,0,0-.14.09.29.29,0,0,1-.16.09l0,.06a3.59,3.59,0,0,1,.64,1,2.84,2.84,0,0,1,.26,1.17,1.74,1.74,0,0,1-.2.78,1.84,1.84,0,0,1-.49.63l-.27.17a2,2,0,0,0-.27.19l-.06,0v.09l.33.53a1.11,1.11,0,0,1,.18.61,2,2,0,0,1-2.28,2.22,2.63,2.63,0,0,1-.77-.13,2.47,2.47,0,0,1-.81-.44,2.14,2.14,0,0,1-.6-.78A2,2,0,0,1,51.42,17.22Z"/></g></g></svg>